<svg width="1200" height="160" viewBox="0 0 1200 160" xmlns="http://www.w3.org/2000/svg">
  <defs>
    <radialGradient id="fgGrad" cx="50%" cy="100%" r="80%">
      <stop offset="0%" stop-color="#1a0a3e"/>
      <stop offset="100%" stop-color="#0d0221"/>
    </radialGradient>
  </defs>
  <rect width="1200" height="160" fill="url(#fgGrad)"/>
  <g stroke="#00d9ff" stroke-width="1.3" opacity="0.55" fill="none" stroke-linejoin="round" stroke-linecap="round">
    <!-- 7 Radiating Spokes (Half Web) -->
    <line x1="600" y1="160" x2="200" y2="160"/>
    <line x1="600" y1="160" x2="340.2" y2="10"/>
    <line x1="600" y1="160" x2="450" y2="-99.8"/>
    <line x1="600" y1="160" x2="600" y2="-140"/>
    <line x1="600" y1="160" x2="750" y2="-99.8"/>
    <line x1="600" y1="160" x2="859.8" y2="10"/>
    <line x1="600" y1="160" x2="1000" y2="160"/>
    <!-- Concentric Web Rings -->
    <polygon points="560,160 565.4,140 580,125.4 600,120 620,125.4 634.6,140 640,160"/>
    <polygon points="520,160 530.7,120 560,90.7 600,80 640,90.7 669.3,120 680,160"/>
    <polygon points="470,160 487.4,95 535,47.4 600,30 665,47.4 712.6,95 730,160"/>
    <polygon points="400,160 426.8,60 500,-13.2 600,-40 700,-13.2 773.2,60 800,160"/>
    <polygon points="300,160 340.2,10 450,-99.8 600,-140 750,-99.8 859.8,10 900,160"/>
  </g>
  <!-- Center Hub -->
  <circle cx="600" cy="160" r="3.5" fill="#E62429" opacity="0.9"/>
</svg>
